<?xml version="1.0" encoding="UTF-8" standalone="no"?>
<svg
   viewBox="0 0 500.00001 576"
   height="576"
   width="500"
   xml:space="preserve"
   id="svg2"
   version="1.1"
   sodipodi:docname="rock.svg"
   inkscape:export-filename="assets/scissors.svg"
   inkscape:export-xdpi="96"
   inkscape:export-ydpi="96"
   xmlns:inkscape="http://www.inkscape.org/namespaces/inkscape"
   xmlns:sodipodi="http://sodipodi.sourceforge.net/DTD/sodipodi-0.dtd"
   xmlns="http://www.w3.org/2000/svg"
   xmlns:svg="http://www.w3.org/2000/svg"
   xmlns:rdf="http://www.w3.org/1999/02/22-rdf-syntax-ns#"
   xmlns:cc="http://creativecommons.org/ns#"
   xmlns:dc="http://purl.org/dc/elements/1.1/"><sodipodi:namedview
     id="namedview1"
     pagecolor="#ffffff"
     bordercolor="#000000"
     borderopacity="0.25"
     inkscape:showpageshadow="2"
     inkscape:pageopacity="0.0"
     inkscape:pagecheckerboard="0"
     inkscape:deskcolor="#d1d1d1"><inkscape:page
       x="0"
       y="0"
       width="500"
       height="576"
       id="page2"
       margin="0"
       bleed="0" /></sodipodi:namedview><metadata
     id="metadata8"><rdf:RDF><cc:Work
         rdf:about=""><dc:format>image/svg+xml</dc:format><dc:type
           rdf:resource="http://purl.org/dc/dcmitype/StillImage" /></cc:Work></rdf:RDF></metadata><defs
     id="defs6" /><g
     transform="matrix(1.3333333,0,0,-1.3333333,-627.34346,562.90937)"
     id="g10"><g
       transform="scale(0.1)"
       id="g12"><path
         id="path14"
         style="display:none;fill:#231f20;fill-opacity:1;fill-rule:nonzero;stroke:none"
         d="m 8654.073,2519.192 c -1.53,8.45 -3.06,14 -4.51,19.77 -11.73,44.6 -24,87.65 -36.45,131.27 -12.58,43.54 -25.07,86.71 -39.08,130.71 -3.57,10.96 -7.36,22.63 -12.34,34.79 -5.16,12.1 -11.58,26.89 -25.89,41.78 -7.16,7.19 -16.32,13.74 -25.48,17.72 -9.28,4.4 -18,6.38 -26.08,7.87 -16.1,2.64 -29.45,2.34 -42.29,1.9 -12.88,-0.72 -24.21,-1.32 -37.32,-4.03 l -19.08,-3.49 -16.93,-3.72 c -22.27,-4.98 -44.61,-9.9 -66.51,-15.18 l -131.75,-31.58 -262.59,-64.78 -524.3,-131.91 -261.98,-66.54 -130.95,-33.38 -31.04,-7.93 -15.74,14.43 591.57,708.55 c 102.5,123.24 204.98,246.26 306.84,370.44 l 19.07,23.48 c 6.45,8.03 12.45,15.12 19.44,24.25 14.03,17.03 25.93,35.8 36.6,55.46 10.56,19.8 19.66,40.7 26.05,64.33 2.95,12.11 5.64,24.45 5.75,39.48 0.08,3.81 -0.28,7.58 -0.57,12.11 -0.3,4.44 -1.6,9.7 -2.71,14.44 -1.09,4.87 -3.26,9.4 -5.17,13.98 -2.14,4.44 -4.99,8.59 -7.86,12.59 l -10.51,10.55 c -0.93,0.82 -1.89,1.63 -2.9,2.38 l -2.36,1.79 -2.76,2.14 -11.44,9.03 -23.03,18.58 -45.77,37.92 c -30.14,25.47 -60.54,51.52 -87.79,77.73 -3.36,3.27 -6.72,6.53 -9.63,9.64 l -5.06,5.2 -7.3,7.17 c -10.14,9.09 -21.25,17.33 -33.64,23.35 -24.46,12.46 -52.81,18.23 -81.6,14.5 -14.35,-1.99 -28.78,-6.24 -42.21,-13.41 -6.58,-3.84 -13.15,-7.79 -18.95,-12.87 -3,-2.41 -5.92,-4.9 -8.49,-7.75 l -7.41,-7.96 -39.14,-43.35 -162.17,-177.09 -325.33,-353.73 -644.85,-699.84 -534.48,-198.52 c -11.59,-4.3 -21.41,-9.56 -27.86,-14.5 l -166.49,93.83 -60.13,33.88 -30.27,16.95 -34.59,16.92 c -47.272,20.72 -102.644,30.12 -156.202,22.18 -26.887,-3.21 -52.496,-11.94 -76.758,-22.23 -23.949,-11.01 -46.305,-24.45 -66.758,-39.73 -20.179,-15.5 -39.336,-32.07 -56.328,-50.14 -17.148,-17.75 -33.226,-37.3 -47.328,-54.98 -57.844,-72.14 -114.637,-144.66 -170.848,-217.96 -28.086,-36.65 -55.972,-73.48 -83.48,-110.77 -27.547,-37.28 -54.774,-74.73 -81.086,-113.98 -6.668,-9.57 -13.016,-20.12 -19.527,-30.14 -3.254,-4.88 -6.403,-10.86 -9.59,-16.25 -3.188,-5.52 -6.41,-11.01 -9.117,-16.91 -11.641,-23.05 -20.68,-47.11 -27.352,-71.48 -13.695,-48.76 -18.664,-98.52 -18.598,-147.48 0.196,-24.49 1.727,-48.81 4.192,-72.97 2.707,-24.11 6.418,-48.01 11.031,-71.68 9.586,-46.91 21.184,-91.7 33.059,-136.62 11.949,-44.81 24.437,-89.31 37.203,-133.71 l 31.957,-108.82 -217.918,-200.7099 c -9.352,-8.62 -13.297,-19.54 -8.817,-24.41 l 38.11,-41.372 c 4.48,-4.867 15.695,-1.832 25.043,6.782 l 254.929,234.7999 -27.004,89.92 -19.222,65.99 c -12.656,44.02 -25.02,88.09 -36.774,132.18 -11.656,44 -23.066,88.34 -31.894,131.59 -4.176,21.48 -7.52,43.05 -9.957,64.66 -2.192,21.61 -3.547,43.23 -3.731,64.75 -0.062,42.95 4.383,85.59 15.629,125.48 5.449,20 12.731,39.21 21.84,57.2 2.051,4.59 4.695,9 7.274,13.43 2.691,4.5 4.804,8.77 7.937,13.46 6.039,9.25 11.512,18.46 17.996,27.76 24.906,37.17 51.774,74.18 78.902,110.88 27.114,36.75 54.766,73.27 82.641,109.64 55.754,72.71 112.406,145.06 169.676,216.47 14.586,18.27 27.797,34.24 42.594,49.61 14.515,15.49 30.371,29 46.597,41.54 16.403,12.26 33.707,22.51 51.535,30.78 18.012,7.48 36.368,13.95 55.278,16.02 37.578,5.46 76.453,-0.47 113.446,-16.58 l 27.39,-13.42 29.93,-16.75 60.09,-33.87 240.38,-135.46 480.75,-270.92 60.09,-33.87 10.4,-5.86 -0.14,-0.87 -22.69,-136.12 -45.38,-272.25 -22.68,-136.12 -5.68,-34.03 c -1.31,-8.02 -1.03,-5.46 -1.18,-6.28 -0.11,-0.23 -0.26,-0.44 -0.5,-0.67 -0.53,-0.47 -1.18,-0.65 -1.63,-0.61 -0.14,0.01 -0.3,0.09 -0.52,0.07 l -8.15,2.46 -16.34,4.98 c -21.77,6.67 -43.44,13.53 -64.85,20.63 l -31.74,10.94 c -10.2,3.69 -21.18,7.69 -29.7,11.47 -11.75,5.34 -27.07,17.97 -39.93,32.49 -13.14,14.66 -25.06,31.53 -35.28,49.21 -10.22,17.7 -18.83,36.36 -24.98,55.09 -3.08,9.37 -5.43,18.72 -7.08,27.84 -0.48,4.46 -1.68,9.16 -1.73,13.42 l -0.34,6.45 -0.2,3.29 -0.11,4.34 -3.47,139.16 -0.89,35.59 c -2.79,20.87 7.72,51.12 -21.6,55.97 l -72.42,37.05 -112.51,57.57 c 0.66,18.7 0.52,37.58 -0.79,56.71 -1.04,18.74 -3.91,37.82 -7.94,57.04 l -3.6,14.52 -4.58,14.68 c -3.78,10.09 -7.16,19.47 -13.9,30.92 -0.99,1.62 -3.02,2.34 -5.48,2.17 -2.98,0.53 -6.07,-0.35 -8.7,-2.35 l -44.89,-33.9 c -2.63,-2.01 -5.2,-3.63 -7.35,-4.29 -1.7,-1.41 -2.68,-2.39 -2.5,-2.66 2.11,-3.35 4.82,-10.17 7.04,-16.18 l 3.1,-9.96 2.6,-10.55 c 2.96,-14.45 5.37,-29.48 6.19,-45.12 2.15,-31.12 0.59,-63.43 -2.75,-95.77 -7.75,-64.83 -23.38,-129.9 -43.06,-193.96 -19.65,-64.08 -43.97,-127.07 -71.14,-188.84 -27.08,-61.62 -57.54,-122.71 -90.59,-180.34 -1.05,-1.81 2.81,-5.79 8.45,-9.25 l 48.24,-28.94 c 5.64,-3.45 11.36,-4.35 12.53,-2.32 35.45,61.8 66.43,124.14 94.78,188.53 28.25,64.23 53.62,129.91 74.36,197.47 17.6,57.36 32.35,116.04 41.67,176.54 l 84.29,-43.12 50.43,-25.8 0.84,-33.89 3.43,-136.75 0.35,-9.61 0.56,-10.77 c 0.29,-7.25 1.76,-13.84 2.65,-20.78 2.42,-13.5 5.76,-26.48 9.86,-38.97 5.92,-18.01 13.25,-35.11 21.63,-51.57 -17.16,-1.14 -36.2,-6.03 -52.93,-16.54 -4.27,-2.93 -8.81,-5.73 -12.61,-9.12 -3.68,-3.48 -7.29,-7.08 -10.79,-10.76 -3.62,-3.64 -5.85,-7.67 -8.73,-11.58 -2.63,-3.94 -5.61,-7.96 -7.26,-11.93 -8.74,-17.48 -11.96,-28.53 -16.56,-41.43 -4.37,-12.59 -8.34,-25.05 -12.29,-37.53 -7.84,-24.93 -15.03,-49.78 -22.11,-74.65 -7.04,-24.87 -13.85,-49.74 -20.46,-74.64 l -12.51,-47.85 -9.39,-37.09 -4.65,-18.53 -0.59,-2.32 -0.29,-1.16 c -0.01,-0.33 0.66,-0.24 0.97,-0.39 l 4.64,-1.06 9.31,-2.13 182.55,-40.84 599.32,-133.6099 c 3.22,-0.72 6.99,3.93 8.43,10.39 l 12.24,54.9 c 1.44,6.4599 0,12.2799 -3.22,12.9899 l -599.31,133.62 -116.95,26.07 6.95,26.39 c 6.53,24.55 13.23,49.04 20.14,73.4 6.92,24.34 13.96,48.65 21.47,72.54 3.77,11.91 7.57,23.82 11.59,35.4 3.79,11.27 8.66,24.55 11.55,29.91 3.69,6.33 7,11.01 11.12,13.03 4,2.41 9.16,4.16 16.76,4.6 7.59,0.35 17.04,-0.97 27.03,-3.33 10.14,-2.38 19.72,-5.69 33.19,-10.11 15.05,-15.1 32.27,-29.34 56.19,-40.55 12.52,-5.47 23.22,-9.26 34.63,-13.42 11.22,-4.02 22.37,-7.83 33.49,-11.54 22.25,-7.38 44.44,-14.4 66.65,-21.21 l 16.66,-5.08 8.37,-2.52 c 5.34,-1.51 10.79,-2.63 16.4,-3.12 22.49,-2.08 45.42,5.66 62.02,20.54 1.12,1.01 2.15,2.11 3.22,3.18 l 296.4,-13.23 c 82.87,-3.49 165.59,-6.93 248.71,-9.83 -7.37,-67.87 -14.88,-135.77 -22.84,-203.43 l -6.78,-55.71 -3.61,-27.57 c -1.21,-9.11 -2.57,-18.33 -3.88,-26.19 -1.85,-11.1499 -6.44,-19.8399 -16.18,-31.8299 -9.6,-11.63 -22.2,-23.84 -35.38,-35.72 -13.12,-11.74 -27.57,-24.113 -41.25,-34.933 -13.69,-10.938 -28.52,-21.719 -43.38,-32.195 -29.95,-20.879 -60.72,-41.063 -92.28,-59.96105 -62.89,-38.192 -128.45,-72.102 -195.56,-101.7 -67.17,-29.457 -136.22,-54.238 -206.61,-71.992 -69.77,-17.676 -143.2,-27.59 -216.78,-35.117 -73.6,-7.266 -147.73,-11.137 -221.95,-12.187 -37.12,-0.387 -74.25,-0.317 -111.34,0.613 -18.54,0.508 -37.08,1.094 -55.57,1.953 l -27.67,1.418 -19.16,1.238 -28.22,2.176 -338.345,-381.59 c -4.086,-4.609 -3.387,-11.902 1.562,-16.293 l 42.086,-37.32 c 4.949,-4.387 12.281,-4.207 16.367,0.402 l 312,351.879 37.7,-2.035 c 19.1,-0.883 38.18,-1.492 57.25,-2.012 38.15,-0.957 76.28,-1.031 114.42,-0.629 76.27,1.078 152.58,5.051 228.77,12.571 19.05,1.832 38.09,3.82 57.11,6.386 l 28.53,3.594 28.49,4.328 28.48,4.395 28.75,5.625 28.77,5.722 28.35,7.106 c 75.57,19.074 148.64,45.363 219.27,76.336 70.58,31.129 139,66.555 204.76,106.476 33.01,19.77 65.22,40.871 97,63.036 15.88,11.207 31.52,22.54605 47.23,35.08905 15.81,12.547 29.95,24.672 44.89,38.008 14.71,13.34 29.41,27.207 43.81,44.578 7.14,8.715 14.33,18.685 20.37,30.515 3.03,5.84 5.64,12.15 7.77,18.39 2.14,6.03 3.6,12.56 4.86,19.35 1.8,10.6899 3.15,20.0899 4.43,29.6299 l 3.71,28.4 6.86,56.35 c 8.26,70.16 16,140.19 23.6,210.28 20.53,-0.39 42.18,-0.37 66.41,3.76 15.72,2.89 33.57,7.33 51.94,19.63 4.48,3.07 8.95,6.9 13.05,10.82 3.9,4.31 8.02,8.58 10.97,13.49 6.74,9.61 10.44,19.79 13.26,29.35 5.1,19.17 5.26,35.69 4.5,50.59 -0.22,8.02 -0.93,14.07 -1.42,21.01 l -1.81,19.88 c -2.53,26.27 -5.54,52 -8.53,77.84 -11.17,93.84 -23.55,187.13 -36.22,280.47 146.83,28.71 293.04,59.76 438.83,92.44 176.04,40.06 351.54,82.16 526.56,126.16 87.49,22.06 174.87,44.58 262.14,67.66 43.61,11.74 87.25,23.14 130.83,35.31 21.81,6.06 43.55,11.83 65.46,18.25 l 32.82,9.43 c 5.2,1.42 11.48,3.44 17.61,5.42 l 18.31,5.97 c 13.14,5.36 26.73,12.55 39.33,22.69 12.59,10.06 24.14,23.55 31.91,39.3 7.93,15.71 11.72,33.15 11.92,49.63 0.26,8.31 -0.57,16.35 -1.79,24.25 z m -1617.37,-786.38 c 2.95,-25.45 5.94,-51.01 8.35,-76.14 2.3,-25.13 5.08,-50.74 1.22,-62.59 -0.92,-2.72 -1.59,-4.94 -2.48,-5.81 -0.67,-1.24 -1.52,-1.84 -3.01,-3.03 -3.14,-2.19 -10.68,-5.06 -20.25,-6.64 -19.27,-3.55 -43.95,-2.78 -69.32,-2.2 -102.41,3.03 -205.86,7.63 -308.88,11.97 l -270.82,12.09 0.93,5.58 22.69,136.13 31.51,189.06 c 6.35,-0.57 13.58,-0.7 21.39,-0.18 l 68.76,4.65 c 22.9,1.62 45.32,4.98 68,7.39 l 67.88,7.9 c 22.68,2.39 44.93,6.45 67.42,9.6 l 67.29,10.1 33.65,5.04 33.45,5.82 133.77,23.36 c 4.35,0.82 8.67,1.7 13.01,2.52 12.41,-91.53 24.56,-183.2 35.44,-274.62 z m 1538.97,763.65 c -0.07,-6.03 -1.31,-11.1 -3.58,-15.52 -4.15,-8.72 -14.04,-17.02 -29.55,-23.3 l -13.85,-4.31 c -4.6,-1.46 -9.02,-2.94 -14.68,-4.49 l -32.12,-9.23 c -21.31,-6.24 -43.11,-12.04 -64.69,-18.04 -43.18,-12.05 -86.71,-23.42 -130.09,-35.1 -86.9,-22.98 -173.98,-45.43 -261.18,-67.42 -174.43,-43.84 -349.33,-85.8 -524.64,-125.69 -175.41,-39.32 -351.24,-76.45 -527.61,-109.58 l -132.44,-23.13 -33.12,-5.75 -33.17,-4.97 -66.32,-9.95 c -22.12,-3.1 -44.22,-7.14 -66.34,-9.46 l -66.34,-7.72 c -22.1,-2.34 -44.28,-5.67 -66.3,-7.21 l -66.06,-4.45 c -1.26,-0.09 -2.46,-0.25 -3.69,-0.36 l 0.61,3.63 22.68,136.12 5.53,33.15 2.83,17.02 0.71,4.25 c 0.02,0.66 0.46,1.53 0.13,2.02 l -1.88,1.06 -7.51,4.24 -49.71,28.01 -60.13,33.89 -467.99,263.72 521.2,193.59 657.92,714.01 325.4,353.81 162.42,177.38 20.29,22.28 21.06,23.59 2.87,2.98 c 0.71,0.96 1.66,1.65 2.59,2.35 1.66,1.65 3.84,2.67 5.81,4.03 4.28,2.26 9.32,3.74 14.76,4.55 10.95,1.47 23.72,-0.75 34.83,-6.53 5.71,-2.63 10.74,-6.61 15.53,-10.77 l 3.43,-3.35 c 0.41,-0.35 1.51,-1.51 2.48,-2.52 l 2.93,-3.05 c 3.94,-4.18 7.77,-7.89 11.59,-11.61 30.51,-29.31 61.05,-55.35 92.06,-81.6 l 46.76,-38.73 23.73,-19.15 15.94,-12.52 -0.03,-0.27 c -0.08,-0.47 0.2,-1.7 0.13,-2.89 0.09,-5.05 -1.33,-12.49 -3.14,-19.78 -4.06,-15.05 -10.8,-31.22 -19.14,-46.72 -8.44,-15.51 -18,-30.77 -29.58,-44.58 -5.17,-6.8 -12.06,-15.04 -18.16,-22.62 l -18.8,-23.15 c -101.36,-123.57 -203.96,-246.74 -306.36,-369.85 l -640.65,-767.2 83.86,-76.87 12.46,-11.42 6.22,-5.7 1.56,-1.43 c 0.58,-0.24 1.33,0.24 1.99,0.32 l 4.09,1.05 32.73,8.36 34.42,8.79 130.92,33.37 261.88,66.52 523.99,131.83 262.16,64.68 131.05,31.41 c 21.89,5.28 43.54,10.04 65.22,14.89 l 16.06,3.53 14.15,2.64 c 8.91,2.18 20.15,2.81 29.74,3.33 9.62,0.41 18.94,0.27 25.08,-0.82 2.95,-0.55 5.34,-1.13 6.18,-1.69 1.23,-0.44 1.26,-0.72 2.11,-1.39 1.45,-1.35 5.21,-7.18 8.62,-15.8 3.56,-8.68 6.78,-18.42 10.17,-28.87 13.33,-41.85 25.9,-85.21 38.32,-128.21 12.28,-43 24.68,-86.59 35.86,-129.12 3.04,-11.52 3.92,-16.06 3.79,-22.51" /><path
         id="path16"
         style="display:none;fill:#231f20;fill-opacity:1;fill-rule:nonzero;stroke:none"
         d="m 8468.4761,934.67921 -42,-37.476 c -4.9,-4.407 -24.9,9.922 -44.6,32.011 l -526.3,589.06699 16.2,37.97 9.4,22.89 15,37.74 c 9.8,25.28 19.4,50.67 28.6,76.19 18.3,51.07 35.9,102.41 51.4,154.27 31.7,103.49 57.9,208.73 71.9,314.3 4.2,26.4 5.8,52.68 7.9,78.98 1.5,13.21 0.8,26.13 1.1,39.18 l 0.2,18.98 c 0,1.61 0,0.65 0,0.96 l -85.2,138.68 -172.4,280.36 -86.2,140.18 -21.5,35.05 c -3.8,6.28 -6.7,10.47 -10.1,15.43 -3.5,4.76 -7,9.43 -10.8,13.96 -15.1,18.14 -33.1,34.54 -53.2,49.19 -19.9,14.77 -41.8,27.82 -64.7,39.62 -22.9,11.75 -47.2,22.71 -70.6,31.18 -49,17.32 -101.6,31.57 -154,44.48 -52.6,12.87 -105.7,24.44 -158.9,34.57 -26.6,5.1 -53.2,9.75 -79.7,13.8 -26.3,3.96 -53.2,7.7 -78.1,9.18 -32.5,5.15 -72.6,-27.45 -105.7,-64.81 -16.8,-18.87 -32.4,-39.6 -47.1,-61.13 l -10.9,-16.33 c -3.9,-6.06 -5.7,-8.92 -13.2,-21.17 -0.5,-0.9 -1.1,-1.91 -1.6,-2.83 l 383.9,-344.94 c 1.1,-0.98 -1.6,-5.76 -6,-10.68 l -37.6,-41.84 c -4.4,-4.93 -8.9,-8.12 -10,-7.14 l -406,364.78 c 0,0.02 0,0.08 0,0.1 l -879.4,739.19 -439.6,369.51 -54.9,46.19 c -9.1,7.78 -18.8,15.02 -26.3,20.17 -1.9,1.33 -3.5,2.18 -5.3,3.34 l -4.3,2.27 c -1,0.22 -2.1,0.83 -2.8,1 -0.5,-0.15 -1.2,0.54 -1.5,0.22 -0.3,0 -0.6,0.21 -1,-0.05 -0.2,-0.06 -0.4,0.06 -0.7,0.03 -0.4,-0.2 -0.8,-0.35 -1.1,-0.45 -0.7,0.01 -1.9,-0.59 -3.1,-1.23 l -1.9,-0.75 -2.2,-1.46 c -6.1,-3.36 -13.6,-9.87 -20.9,-16.73 -14.7,-14.32 -29.39,-31.64 -43.71,-49.86 -28.7,-36.38 -56.34,-75 -83.43,-113.86 l -40.23,-58.79 -20.45,-30.66 1056.02,-960.48 c 2.9,-2.63 1.6,-8.72 -2.8,-13.62 l -37.9,-41.61 c -4.4,-4.89 -10.4,-6.73 -13.2,-4.11 l -1065.75,969.28 -24.77,22.36 -22.1,19.2 -11.7,9.81 c -7.16,5.89 -14.36,11.6 -21.18,16.61 -3.39,2.51 -6.7,4.75 -9.19,6.31 -0.77,0.24 -0.02,0.16 -1.13,0.34 -3.38,1.16 -16.16,-0.91 -28.12,-7.96 -12.3,-6.64 -24.83,-17.12 -36.47,-28.91 -11.48,-11.68 -22.94,-25.99 -34.27,-40.78 -11.27,-14.81 -22.28,-30.3 -33.22,-45.94 l -65.67,-96.32 c -11.27,-16.29 -22.68,-32.62 -35.33,-49.07 l -17.69,-22.48 c -5.03,-6.63 -9.04,-13.01 -11.53,-17.93 -0.41,-1.08 -0.87,-2.13 -1.4,-3.16 -0.09,-0.7 -0.28,-1.35 -0.59,-1.98 0.1,-0.29 0.06,-0.46 -0.1,-0.64 0.05,0 0.03,0 0.05,0 -0.14,0.51 0.52,-2.13 4.2,-6.95 7.76,-10.04 21.56,-22.31 36.44,-35.46 l 87.05,-77.64 43.53,-38.82 29.44,-26.26 21.77,-19.44 10.86,-9.72 5.43,-4.86 c 0.69,-0.33 0.42,-0.77 0.04,-1.22 l 836.9,-786.98 c 2.3,-2.17 0.5,-7.83 -4.1,-12.65 l -38.5,-40.98 c -4.5,-4.82 -10.1,-6.97 -12.4,-4.8 l -829.34,779.92 -43.8,-60.43 -69.55,-94.26 c -23.42,-31.35 -46.85,-62.57 -71.42,-93.77 -6.28,-7.83 -12.25,-15.56 -19.03,-23.56 -3.48,-4.07 -6.2,-7.67 -10.47,-12.23 -3.71,-4.08 -8.99,-9.74 -9.78,-10.79 -3.85,-4.02 -6.23,-8.1 -7.75,-12.17 -1.5,-4.08 -2.52,-8.16 -2.2,-12.86 0.29,-9.24 4.45,-20.62 12.35,-30.98 1.91,-2.62 4.07,-5.12 6.39,-7.54 1.04,-1.3 2.4,-2.37 3.6,-3.56 l 4.43,-4.12 c 8,-7.13 15.08,-13.82 22.37,-20.61 28.64,-27 56.67,-54.02 84.74,-81.12 l 167.36,-162.94 c 0.25,-0.09 0.58,-0.03 0.79,-0.19 l 850.11,-658.6 c 2.2,-1.76 0.8,-7.44 -3.2,-12.67 l -34.5,-44.46 c -4,-5.23 -9.2,-8.04 -11.5,-6.27 l -823.51,638.05 -9.87,-11.83 -34.13,-41.7 c -22.43,-27.79 -45.27,-56.09 -65.36,-83.64 -9.65,-13.35 -17.22,-25.63 -21.51,-37.58 -4.54,-11.94 -5.29,-21.9 -3.54,-31.14 2.19,-9.2 7,-19.16 16.05,-29.2 2.52,-2.53 4.21,-4.84 7.31,-7.64 l 9.03,-8.3 c 5.69,-5.39 13.01,-11.61 19.54,-17.43 108.15,-94.54 218.74,-188.43 328.39,-282.52 l 329.2,-282.96 c 54.6,-47.47 109.3,-94.86 163.6,-143.08 13.6,-11.98 27.2,-24.06 40.7,-36.33 13.6,-12.26 27.1,-24.2 40.6,-37.02 l 20.3,-18.95 19.5,-18.62 39.1,-37.02 c 105,-98.02 212.7,-193.93 324.2,-283.24 27.9,-22.147 56.1,-44.1 84.7,-64.608 28.5,-20.836 57.7,-40.316 86.6,-56.543 7.4,-3.808 13.8,-7.722 22.1,-11.523 l 24.2,-11.438 49.3,-23.19499 c 16.4,-7.773 32.9,-15.684 49.3,-23.813 16.4,-7.953 32.7,-16.207 49,-24.609 72.5,-36.996 143.5,-77.164 212.5,-120.535 73.3,13.422 147.1,30.172 219.8,49.094 75.2,19.64 149.7,42.062 222.6,67.925 72.8,26.02 144.3,55.5 211.8,90.79699 33.8,17.559 66.3,37.036 97.2,58.141 30.7,21.168 59.8,44.277 84.6,70.237 1.6,1.62 6.9,-0.75 11.7,-5.28 l 40.8,-38.66 c 4.8,-4.539 7.2,-9.793 5.2,-11.735 -29.7,-31.031 -62.7,-57.085 -96.8,-80.566 -34.1,-23.37499 -69.4,-44.42599 -105.4,-63.17199 -72.2,-37.668 -146.7,-68.351 -222.2,-95.328 -75.6,-26.789 -152.1,-49.82 -229.3,-69.965 -48.1,-12.519 -96.2,-23.918 -144.8,-34.285 22.5,-15.59 44.8,-31.441 66.7,-47.82 118.4,-87.348 227.9,-187.129 325.8,-297.641 20,-22.707 32.1,-44.547 27,-48.769 l -43.2,-36.118 c -5.1,-4.222 -24.7,9.965 -43.9,31.704 -93.8,106.031 -199.2,202.113 -313.6,286.484 -113.9,85.039 -235.9,159.187 -363,224.086 -15.9,8.187 -31.8,16.234 -47.9,24.019 -16,7.938 -32.1,15.7 -48.4,23.36 l -48.8,23.008 -24.9,11.738 c -8.1,3.703 -17.3,9.035 -25.9,13.515 -34.2,19.176 -65.1,40.028 -95,61.84799 -30.2,21.598 -59.1,44.164 -87.8,66.918 -114.2,91.519 -222.7,188.159 -329.1,287.449 l -39.6,37.56 -19.8,18.83 -19.3,18.09 c -12.7,12.08 -26.3,24.06 -39.6,36.07 -13.2,12.03 -26.6,23.99 -40.2,35.9 -53.8,47.8 -108.4,95.12 -162.9,142.45 l -328.87,282.67 c -109.84,94.27 -219.76,187.56 -329.36,283.38 -6.97,6.21 -13.45,11.66 -20.93,18.68 l -10.89,10.08 c -3.6,3.27 -7.64,8 -11.39,11.98 -15.07,16.83 -28.45,39.45 -34.12,65.59 -5.5,26.31 -1.54,53.59 6.88,75.33 8.07,22.12 20.18,40.65 31.61,56.56 22.53,30.87 45.19,58.81 68.16,87.3 l 45.69,55.67 -140.67,136.74 -83.94,80.36 -20.56,18.95 -6.27,5.81 c -2.28,2.2 -4.66,4.27 -6.77,6.7 -4.4,4.62 -8.58,9.49 -12.45,14.72 -15.48,20.59 -27.2,46.68 -28.32,76.5 -1.43,29.76 11.32,61.15 30.48,81.26 l 9.83,10.84 c 2.44,2.49 5.65,6.62 8.49,9.95 5.83,6.84 11.76,14.5 17.65,21.85 23.6,29.96 46.91,60.99 70.07,92 l 69.09,93.65 49.19,67.61 -144.95,129.29 c -14.06,12.77 -30.2,25.78 -46.56,46.42 -4.1,5.55 -8.22,11.47 -11.93,19.08 -3.7,7.41 -6.74,16.56 -8.09,26.31 -0.66,4.79 -0.59,9.71 -0.58,14.56 0.4,4.65 1.08,9.3 1.92,13.81 1.07,4.03 2.25,8.06 3.53,12.02 l 4.38,10.24 c 6.2,12.5 12.98,22.41 19.63,31.33 3.35,4.56 6.69,8.56 10.05,12.86 l 8.35,10.54 c 11.08,14.41 22,29.98 32.86,45.69 l 65.88,96.62 c 11.36,16.24 22.9,32.5 35.2,48.66 12.35,16.06 25.14,32.31 40.92,48.44 15.69,15.78 33.08,30.91 54.99,42.96 10.75,6.11 23.06,11.2 36.72,14.69 13.7,3.34 29.4,5.05 46.91,1.41 8.49,-1.58 18.26,-5.61 25.91,-10.2 5.77,-3.58 10.48,-6.87 14.92,-10.13 8.86,-6.52 16.89,-12.93 24.76,-19.4 l 10.7,-8.92 v -0.01 l 14.48,21.62 40.92,59.79 c 27.69,39.7 55.79,79.05 86.43,117.89 15.3,19.37 31.48,38.84 51.09,57.94 10.15,9.48 20.64,19.04 35.35,27.75 l 5.39,3.23 6.32,2.98 c 4.2,1.96 8.4,3.82 13.6,5.18 l 7.5,2.06 c 2.7,0.52 5.5,0.84 8.2,1.18 5.5,0.83 11.2,0.72 16.9,0.26 5.8,-0.18 10.8,-1.71 16.2,-2.88 5,-1.4 9.4,-3.25 14,-5.06 3.9,-1.94 8.1,-3.96 11.7,-6.02 3.3,-2.04 6.9,-4.17 9.9,-6.22 12.2,-8.47 21.6,-15.71 30.7,-23.44 l 55.1,-46.27 440.3,-370.12 843.4,-708.89 0.3,0.59 8.7,13.72 12,17.99 c 16.2,23.8 33.7,47.01 53.4,69.21 19.7,22.15 41.5,43.51 68.6,61.86 13.5,9.11 28.8,17.32 46.4,23.16 8.7,2.88 18,5.18 27.9,6.26 9.5,1.28 21.5,0.94 27.6,0.36 29.9,-1.84 57.5,-5.8 85.4,-9.96 27.8,-4.24 55.3,-9.05 82.6,-14.29 54.7,-10.42 108.9,-22.24 163,-35.48 54.1,-13.37 107.7,-27.74 162.3,-46.96 28.2,-10.28 54,-22.04 80,-35.32 25.8,-13.33 51.3,-28.4 75.5,-46.3 24.2,-17.74 47.3,-38.47 67.3,-62.54 5,-6 9.8,-12.24 14.4,-18.63 4.4,-6.3 9.2,-13.45 12.5,-18.95 l 21.6,-35.11 86.3,-140.45 172.7,-280.9 87.2,-141.95 5.4,-8.73 2.7,-4.39 1.4,-2.2 c 0.5,-0.69 0.8,-1.46 0.7,-2.36 l -0.2,-19.66 -0.2,-22.19 c -0.3,-14.38 0.3,-28.98 -1.2,-43.1 -2.2,-28.44 -4,-56.99 -8.4,-84.86 -15,-112.2 -42.2,-220.81 -74.7,-327.22 -16,-53.33 -34.1,-105.87 -52.8,-158.18 -9.4,-26.12 -19.2,-52.11 -29.3,-78.02 l -21.6,-53.99 492.4,-551.09899 c 19.7,-22.086 31.7,-43.563 26.8,-47.973" /><path
         id="path18"
         style="display:inline;fill:#231f20;fill-opacity:1;fill-rule:nonzero;stroke:none"
         d="M 6709.3,3476.68 Z M 8065.27,2258.79 c -1.41,-9.9 -3.22,-19.85 -6.2,-29.49 -1.3,-4.88 -3.04,-9.57 -4.77,-14.28 l -3.85,-10.72 c -2.29,-6.09 -4.82,-14.21 -7.23,-21.38 l -7.26,-22.35 -28.48,-90.53 -55.94,-181.95 -55.35,-182.26 -27.54,-91.18 -6.34,-21.04 -1.72,-5.7 c -1.16,-1.48 -3.06,-2.45 -4.55,-3.71 l -9.31,-6.92 -23.04,-17.13 -38.32,-28.41 -153.81,-113.04 -77.54,-56.02 -39.27,-27.78 -9.96,-6.91 c -3.33,-2.3 -6.8,-4.67 -9.4,-6.67 -5.62,-4.35 -11.3,-7.99 -16.92,-12.84 -22.67,-18.16 -44.66,-39.54 -65.77,-61.53 -21.25,-21.95 -41.49,-45.21 -60.96,-68.97 -38.67,-47.52 -74.95,-98.2 -101.31,-150.21 -2.97,-6.47 -6.21,-12.96 -9.01,-19.37 l -7.1,-18.927 c -1.34,-6.118 -3.26,-11.289 -4.47,-18.086 -0.99,-7.117 -2.46,-13.75 -3.12,-21.258 -3.44,-29.227 -4.96,-60.066 -5.5,-90.988 -0.97,-61.871 0.75,-124.95 5.07,-186.743 0.84,-11.445 0.41,-21.949 -0.97,-28.937 -0.33,-1.699 -0.74,-3.262 -1.22,-4.66 -0.25,-0.606 -0.48,-1.571 -0.78,-1.766 -0.31,0.016 -0.67,-0.004 -1.03,-0.047 -0.43,-0.074 -0.81,-0.144 -1.15,-0.207 l -0.59,-0.148 c -2.33,-0.703 -4.49,-1.352 -6.46,-1.945 -11.42,-3.61 -17.28,-5.95 -17.28,-5.95 l -32.61,-10.867 c -3.08,-1.93 -9,10.379 -11.57,17.067 -3.16,8.464 -5.43,19.378 -6.33,31.605 -4.53,64.941 -6.28,128.984 -5.27,194.145 0.6,32.578 2.1,65.277 6.08,99.148 0.75,8.324 2.54,17.273 3.81,25.871 1.55,8.828 4.57,18.833 6.97,28.133 3.04,8.76 6.36,17.13 9.6,25.68 3.53,8.14 7.36,15.89 11.05,23.84 31.23,61.37 69.76,114.37 111.08,165.36 20.78,25.37 42.28,50.07 65.21,73.77 22.88,23.79 46.47,46.88 73.37,68.49 6.43,5.52 14.04,10.65 21.04,15.94 3.72,2.79 6.81,4.89 10.02,7.12 l 9.61,6.66 38.52,27.25 76.94,55.58 153.3,112.68 38.24,28.34 15.19,11.29 0.25,0.19 c 0.02,0.08 0.13,0.43 0.54,1.76 l 27.55,91.26 55.41,182.45 56.06,182.36 28.73,91.26 7.45,22.96 c 2.65,7.88 4.8,14.94 8.05,23.75 l 4.21,11.69 c 0.99,2.75 2.07,5.48 2.77,8.3 1.77,5.54 2.71,11.27 3.61,17.08 2.94,23.31 -1.28,50.31 -8.9,78.96 -1.89,7.16 -3.93,14.39 -6.09,21.69 l -3.32,10.95 -3.39,10.24 c -4.85,14.06 -10.32,28.65 -15.93,43.19 -22.61,58.3 -47.18,116.74 -72.15,174.57 -12.57,28.85 -25.35,57.77 -38.51,85.66 -3.27,6.66 -6.66,13.94 -9.76,19.64 -3.06,6 -7.12,12.83 -10.63,18.72 -7.33,11.96 -14.61,21.97 -23.34,30.9 -17.15,17.89 -41.86,33.65 -67.97,48.68 -12.2,6.67 -26.03,13.56 -39.99,20.29 -14.06,6.72 -28.2,13.39 -42.54,19.95 -57.18,26.35 -115.25,51.88 -173.3,77.25 l -87.25,37.83 -36.54,15.63 c -9.01,-105.16 -18.28,-210.25 -28.01,-315.36 l -17.55,-181.84 c -6.12,-60.67 -12.41,-121.19 -20.19,-182.37 -1.76,-15.15 -4.23,-30.92 -6.58,-46.55 l -0.93,-5.97 -0.81,-3.92 c 14.56,-20.06 31.62,-39.28 49.01,-52.8 2.55,-1.92 5.08,-3.97 7.6,-5.49 2.52,-1.77 5.01,-3.3 7.42,-4.53 1.94,-1.18 5.83,-3.14 9.47,-4.97 l 10.83,-5.49 43.32,-21.95 86.65,-43.91 43.32,-21.96 c 0.46,-0.25 5.54,-1.58 9.86,-1.76 4.59,-0.26 9.24,0.23 13.48,1.07 4.31,0.8 7.83,2.55 11.2,4.19 2.99,2.17 6.1,3.98 8.4,7.18 2.61,2.79 4.71,6.62 6.78,10.84 1.03,2.14 1.68,4.79 2.66,7.11 0.94,2.51 2.04,7.04 3.06,10.46 8.25,30.03 15.74,61.99 23.17,93.45 14.75,63.22 28.85,126.92 42.64,190.53 0.45,2.04 6.04,2.56 12.51,1.17 l 54.99,-11.83 c 6.47,-1.39 11.35,-4.21 10.9,-6.27 -13.88,-64.05 -28.02,-127.88 -42.94,-191.87 -7.59,-32.1 -14.96,-63.76 -24,-96.71 -1.31,-4.4 -2.06,-7.84 -3.83,-13.04 -1.93,-5.29 -3.55,-10.54 -5.96,-15.8 -4.9,-10.5 -10.93,-21 -19.23,-30.41 -7.85,-9.69 -18.2,-17.59 -28.9,-24.19 -10.98,-6.07 -22.63,-10.77 -34.38,-13.18 -11.73,-2.46 -23.46,-3.43 -35.19,-2.77 -11.94,0.93 -23.17,2.42 -37.79,8.53 l -44.08,22.31 -88.15,44.61 -44.06,22.32 -11.02,5.57 c -3.65,1.85 -7.08,3.52 -12.22,6.42 -4.83,2.55 -9.29,5.31 -13.48,8.19 -4.42,2.8 -8.28,5.83 -12.25,8.85 -14.16,11.02 -26.27,22.93 -37.38,35.27 -4.11,-4.64 -8.47,-9.13 -13.3,-13.26 -16.4,-14.28 -37.11,-24.34 -58.36,-28.55 -21.27,-4.39 -42.75,-3.43 -62.4,1.14 -5.05,0.92 -9.66,2.67 -14.48,4.06 l -3.52,1.11 -2.79,1.01 -5.59,2.02 -21.87,8.15 -85.44,33.14 -84.68,33.03 c -14.01,5.37 -28.21,10.79 -41.57,15.5 l -9.16,3.08 c -6.13,2.1 -13.72,5.13 -18.25,7.99 -10.68,5.88 -18.14,12.17 -25.65,18.61 -14.36,12.92 -25.67,26.71 -35.86,41.11 -1.65,2.34 -3.04,4.79 -4.62,7.16 -1.31,-4.03 -2.66,-8.08 -3.93,-12.08 -4.07,-10.29 -8.32,-20.52 -13.43,-29.69 -2.32,-4.67 -5.76,-9.73 -8.67,-14.53 -1.47,-2.41 -3.64,-5.05 -5.47,-7.54 -2.05,-2.55 -3.55,-4.93 -6.21,-7.58 -8.36,-9.91 -23.58,-21.62 -40.75,-26.22 -8.39,-2.45 -17.8,-3.28 -25.54,-2.87 -4.28,0.03 -7.61,0.59 -11.11,1.1 -3.66,0.48 -6.75,1.18 -9.69,1.92 -12.01,2.92 -21.51,6.53 -29.83,9.58 -8.48,3.08 -15.91,5.91 -23.39,8.16 -7.23,2.33 -15.89,4.68 -24.04,6.96 -16.63,4.57 -33.66,8.94 -50.66,13.27 -34.06,8.64 -68.37,16.98 -102.68,25.12 -34.16,8.05 -69.06,16.27 -102.39,23.26 l -5.65,1.12 c -1.38,0.22 -4.2,0.79 -6.14,1.27 -1.02,0.41 -2.26,0.11 -3.11,1.12 l -3.17,0.93 c -2.08,0.69 -4.28,1.1 -6.27,2.01 l -5.86,3.07 c -3.78,1.9 -7.73,4.77 -11.38,7.76 -10.81,8.91 -17.57,16.88 -24.34,24.89 -5.8,7.16 -11.09,14.24 -16.13,21.34 -3.24,-1.15 -6.52,-2.24 -9.95,-3.05 -5.11,-1.47 -9.39,-2.2 -13.62,-2.9 l -6.44,-1.09 -5.64,-0.74 -11.27,-1.44 c -14.59,-1.65 -28.98,-3.08 -43.26,-4.39 -28.55,-2.56 -56.92,-4.79 -85.29,-6.92 -45.79,-3.38 -91.49,-6.42 -137.24,-9.3 l 21.08,-81.95 c 36.13,4.36 71.92,5.96 108.66,4.45 22.44,-0.95 45.13,-3.54 67.92,-7.84 11.39,-2.03 22.82,-5.07 34.24,-8.19 l 30.5,-9.31 c 80.79,-25.19 160.4,-53.62 239.06,-85.17 78.58,-31.74 156.03,-67.1 231.05,-108.76 74.69,-42.05 148.01,-89.58 211.35,-154.52 2.08,-2.04 -0.17,-7.34 -5.02,-11.83 l -41.23,-38.27 c -4.85,-4.49 -10.23,-6.75 -12,-5.03 -53.49,54.94 -121.49,100.02 -192.11,139.56 -71.02,39.46 -145.8,73.68 -222.08,104.48 -76.37,30.63 -154.2,58.43 -232.88,82.97 l -29.41,8.98 c -8.75,2.32 -17.47,4.73 -26.67,6.33 -18.23,3.43 -37.13,5.68 -56.42,6.48 -27.84,1.19 -56.63,0.19 -84.81,-2.69 l 9.2,-35.78 c 1.82,-7.09 -1.89,-14.18 -8.3,-15.83 l -54.48,-14.01 c -6.4,-1.64 -13.08,2.77 -14.9,9.86 l -84.94,330.32 -42.47,165.16 -14.38,55.9 -10.61,41.29 -5.31,20.65 -1.33,5.16 c 0.89,0.72 3.31,0.31 4.88,0.52 l 10.66,0.37 127.21,4.44 170.04,5.92 c 57.62,2.46 114.32,3.23 169.34,7.18 27.32,2.05 54.99,4.58 79.3,9.64 l 8.89,1.95 c 2.88,0.68 5.24,1.55 7.9,2.27 l 3.8,1.12 2.74,1.2 2.8,1.07 c 1.08,0.37 0.48,0.49 0.86,0.61 0.95,-0.25 9.54,9.77 16.44,20.22 14.41,21.16 28.35,45.73 41.98,70.01 l 40.65,74.32 41.22,75.28 c 7,12.57 14.22,25.15 21.53,37.72 l 11.27,18.87 5.01,8.65 4.65,8.14 c 3.25,5.4 5.41,10.95 8.22,16.39 2.61,5.47 4.36,10.95 6.67,16.39 3.24,10.76 6.47,21.65 6.77,31.25 0.65,9.65 -0.33,18.26 -2.77,24.49 -2.46,6.27 -5.85,10.22 -10.59,13.26 -5.34,3.17 -9.13,4.35 -24.6,6.54 l -41.39,5.4 -84.35,9.83 -169.66,19.48 c -28.34,3.36 -56.72,6.9 -85.29,10.79 l -42.84,6.25 c -13.01,1.95 -26.18,3.54 -39.5,4.57 -53.28,4.25 -108.11,2.25 -162.84,-3.47 -13.69,-1.37 -27.4,-3.09 -41.11,-4.9 l -20.6,-2.92 c -6.92,-1.04 -12.96,-2.04 -19.76,-3.27 -26.86,-4.95 -54.54,-10.89 -82.03,-16.91 -55.1,-12.14 -110.34,-25.07 -165.41,-38.23 -1.39,-0.33 -2.74,-0.29 -4.08,-0.22 l -94.93,-36.26 c -30.38,-11.78 -60.74,-23.64 -90.77,-35.74 -15,-6.05 -29.95,-12.17 -44.45,-18.36 -14.39,-6.16 -27.92,-12.49 -35.93,-18.32 -4.1,-2.93 -6.69,-5.33 -8.4,-7.95 -1.13,-1.12 -1.64,-2.86 -2.65,-4.27 -0.61,-2.02 -1.65,-3.45 -2.2,-6.02 -2.85,-9.14 -4.25,-22.93 -4.49,-37.43 -0.27,-14.48 0.19,-30.27 1.27,-45.64 0.9,-15.18 2.56,-31.46 4.08,-47.39 3.18,-32.1 6.89,-64.56 10.53,-96.95 l 21.97,-195.21 c 6.88,-65.38 13.54,-130.67 17.14,-197.76 0.59,-17.04 1.32,-33.93 0.81,-52.15 l -0.27,-12.55 -0.38,-11.81 c -0.29,-7.84 -0.26,-15.96 -0.42,-23.92 -0.29,-32.06 -0.08,-64.4 0.69,-96.75 1.39,-64.69 4.25,-129.5 9.14,-193.74 2.27,-32.18 5.57,-64.04 9.33,-95.61 2.23,-15.56 4.18,-31.35 7.09,-46.33 l 2,-11.38 2.49,-10.74 2.46,-10.73 c 0.92,-3.3 1.99,-6.19 2.94,-9.32 l 1.44,-4.62 0.7,-2.32 0.75,-1.34 c 1.04,-1.81 1.35,-3.24 3.51,-6.44 1.82,-2.84 3.25,-5.49 5.33,-8.51 l 6.32,-9.13 c 8.7,-12.28 18.43,-24.79 28.26,-37.23 19.89,-24.88 40.79,-49.58 61.86,-74.16 42.32,-49.11 85.71,-97.74 129.4,-146.18 l 263.88,-290.35 c 43.9,-49.04 87.65,-97.06 130.37,-150 2.66,-3.24 5.36,-6.89 8.05,-10.41 2.7,-3.59 5.32,-6.88 8.18,-11.18 2.81,-4.19 5.59,-7.77 8.38,-13.1 2.8,-4.98 5.57,-10.08 7.34,-14.52 8.29,-18.61 13.28,-35.59 17.82,-52.56 8.95,-33.84 15.15,-66.883 20.59,-99.918 10.73,-65.997 18.18,-131.61 24.59,-197.258 6.33,-65.641 11.41,-131.211 15.55,-196.922 1.5,-23.859 -2.83,-43.567 -9.44,-43.988 l -56.18,-2.836 c -6.6,-0.422 -12.95,18.304 -14.43,41.824 -4.08,64.816 -9.11,129.656 -15.34,194.191 -6.29,64.504 -13.64,128.903 -23.9,192.012 -5.16,31.473 -11.13,62.77 -18.92,92.156 -3.83,14.609 -8.35,29.039 -13.44,40.289 -1.22,3.18 -2.51,5.19 -3.67,7.36 -0.84,2.02 -3.1,4.93 -4.83,7.53 -1.63,2.54 -4.1,5.65 -6.32,8.59 -2.27,2.98 -4.41,5.91 -6.94,8.98 -39.41,48.88 -83.69,97.69 -127.03,146.05 l -263.88,290.35 c -43.9,48.68 -87.59,97.64 -130.64,147.6 -21.49,25.06 -42.84,50.28 -63.79,76.48 -10.44,13.21 -20.8,26.51 -31.01,40.9 l -7.64,11.04 c -2.55,3.72 -5.14,8.19 -7.68,12.27 -2.42,3.6 -5.37,9.69 -7.96,15.2 l -1.91,4.18 -1.16,3.53 -2.3,7.05 c -1.47,4.68 -3.11,9.52 -4.36,14.09 l -3.07,13.15 -3.01,13.16 -2.27,12.77 c -3.29,17.13 -5.36,33.81 -7.75,50.61 -3.98,33.36 -7.39,66.56 -9.74,99.62 -5.03,66.16 -7.93,132.05 -9.36,198.12 -0.78,33.02 -1,66.08 -0.69,99.4 0.16,8.38 0.14,16.62 0.44,25.12 l 0.4,12.69 0.21,6.35 0.05,5.62 c 0.42,14.48 -0.22,30.27 -0.75,45.91 -3.41,63.51 -9.96,128.39 -16.79,193.06 l -21.9,194.67 c -3.66,32.59 -7.39,65.11 -10.65,98.08 -1.58,16.61 -3.27,32.87 -4.32,50.33 -1.19,17.24 -1.73,34.17 -1.41,52.37 0.52,18.11 1.46,37.29 8.09,59.51 1.41,5.39 4.11,11.3 6.48,16.89 3.05,5.66 5.93,11.45 10.03,16.66 7.62,10.84 17.4,19.53 26.58,26.04 18.73,13.11 35.42,19.93 50.95,26.8 15.57,6.66 30.88,12.91 46.2,19.1 30.62,12.34 61.17,24.26 91.77,36.13 l 50.03,19.27 -10.43,21.94 c -9.69,20.85 -19.05,41.93 -27.69,63.84 -4.27,11.04 -8.48,22.1 -12.25,33.86 -3.86,11.69 -7.18,23.23 -10.06,36.45 -2.65,13.1 -5.32,27.98 -2.94,47.08 1.12,9.36 4.3,19.77 8.96,28.76 4.63,9.32 10.48,16.34 16.05,22.61 11.24,11.87 21.48,19.29 30.87,26.51 l 26.58,20.31 53.17,40.61 106.33,81.22 106.34,81.23 53.18,40.61 13.78,10.48 c 6.56,4.72 12.56,9.54 20.7,13.36 15.02,7.97 35.03,13.39 54.64,11.07 19.55,-1.98 36.31,-9.84 49.39,-18.71 13.21,-8.98 23.58,-19.15 32.61,-29.49 4.55,-5.17 8.67,-10.44 12.53,-15.74 3.97,-5.36 7.33,-10.29 11.3,-16.82 6.92,-11.67 12.13,-21.86 17.42,-32.32 10.45,-20.75 20.03,-41.23 29.57,-61.8 l 9.64,-21.04 7.42,3.36 c 15.73,6.96 31.85,12.99 48.38,18.01 8.28,2.47 16.64,4.73 25.1,6.73 9.63,1.75 21.75,3.72 29.71,3.78 l 13.27,0.67 12.56,0.06 c 8.35,0.03 16.67,0.01 24.68,-0.36 64.73,-2.11 127.02,-8.5 189.74,-15.21 31.28,-3.5 62.49,-7.3 93.73,-11.42 l 47,-6.61 c 8.1,-1.32 15.6,-2.34 24.22,-3.93 8.35,-1.43 17.24,-3.31 25.61,-5.48 16.9,-4.26 33.12,-9.55 49.12,-15.73 16.04,-6.22 31.62,-13.11 47.97,-22.39 4.11,-2.39 8.38,-5.03 12.83,-8.11 1.74,-1.3 6.45,-4.53 8.88,-6.97 2.91,-2.58 5.64,-5.32 8.03,-8.38 5.07,-5.88 8.64,-12.88 11.61,-20.05 3.01,-7.82 3.94,-11.87 5.33,-17.39 1.12,-5 2.03,-9.86 2.74,-14.53 l 0.95,-6.93 0.39,-3.39 0.16,-1.52 0.02,-0.13 c -0.02,0.12 -0.02,0.13 -0.02,0.13 l 172.12,-54.7 199.06,-64.03 c 33.21,-10.8 66.29,-21.65 99.76,-33.04 16.12,-5.5 35.49,-12.09 53.28,-21.06 17.97,-8.94 35.48,-19.49 52.26,-33.95 8.37,-7.29 16.61,-15.49 24.28,-26.37 3.8,-5.6 7.51,-11.53 10.58,-19.16 1.63,-3.69 2.9,-7.87 3.94,-12.13 l 0.69,-2.91 0.27,-1.73 0.51,-3.26 8.18,-52.23 12.85,-82.17 154.87,-66.83 c 58.37,-25.52 116.61,-51.12 174.82,-77.93 14.55,-6.66 29.13,-13.54 43.73,-20.52 14.64,-7.08 29.29,-14.28 44.94,-22.88 28.68,-16.73 58.71,-34.75 85.92,-62.63 13.51,-13.8 24.91,-29.72 34.12,-44.85 4.63,-7.75 8.7,-14.57 12.91,-22.69 4.45,-8.28 7.73,-15.42 11.46,-23.01 13.95,-29.57 26.83,-58.76 39.64,-88.15 25.39,-58.8 50.08,-117.5 73.41,-177.65 5.83,-15.1 11.52,-30.25 17.04,-46.21 l 4.08,-12.39 3.59,-11.84 c 2.34,-7.93 4.62,-15.98 6.78,-24.18 8.47,-32.53 15.73,-69.34 10.88,-109.39 z m -1846.89,212.54 c -0.34,1.12 -0.02,2.3 -0.44,3.37 -0.17,0.53 -0.28,1.07 -0.34,1.64 0.07,0 -0.3,1.2 -0.56,2.09 l -0.82,2.78 c -4.29,14.75 -7.87,28.45 -11.45,42.39 -11.97,46.74 -23.16,93.2 -34.25,139.76 -49.56,-2.79 -98.19,-3.74 -145.98,-5.8 l -170.83,-5.96 -42.71,-1.49 c -0.26,-0.01 -0.4,-0.01 -0.48,-0.01 0,0 0.01,0 -0.02,-0.01 l 6.86,-26.68 42.47,-165.16 14.18,-55.16 c 50.57,3.14 101.18,6.49 151.63,10.21 28.07,2.11 56.13,4.32 83.95,6.82 13.91,1.27 27.68,2.65 41.21,4.17 l 9.78,1.26 4.89,0.63 4.01,0.7 c 2.77,0.43 5.46,0.88 7.14,1.46 1.97,0.4 3.94,1.16 5.92,1.91 15.94,5.64 30.89,20.91 34.4,33.08 1.27,3.03 1.11,5.6 1.44,8 z m -164.76,843.65 -89.24,225.07 -8.74,19.75 -18.23,40.08 c -9.28,20.04 -18.7,40.11 -28.38,59.35 -4.79,9.52 -9.87,19.23 -14.37,26.81 -1.82,3.05 -4.72,7.42 -7.44,11.03 -2.72,3.75 -5.51,7.31 -8.36,10.53 -5.66,6.52 -11.57,11.98 -16.9,15.58 -5.37,3.65 -9.69,5.11 -12.51,5.4 -2.79,0.41 -5.42,-0.28 -10.07,-2.62 -2.17,-0.7 -4.81,-3.15 -7.44,-4.81 l -12.95,-9.83 -53.56,-40.92 -107.13,-81.85 -107.13,-81.84 -53.57,-40.91 -26.78,-20.46 c -8.4,-6.32 -16.12,-12.46 -20.23,-16.94 -1.78,-2.12 -3.21,-3.78 -3.43,-4.59 -0.44,-0.96 -0.72,-1.37 -0.89,-3.13 -0.53,-3.17 -0.01,-10.82 1.95,-19.54 1.87,-8.66 4.67,-18.68 7.86,-28.23 3.05,-9.57 6.81,-19.45 10.61,-29.28 7.78,-19.74 16.58,-39.61 25.76,-59.35 l 6.98,-14.8 8.03,-16.36 c 49.5,11.77 98.99,23.33 148.87,34.32 28.03,6.13 55.94,12.15 84.98,17.5 7.18,1.3 15.17,2.62 22.3,3.69 l 21.62,3.06 c 14.46,1.91 28.96,3.72 43.55,5.19 58.29,6.06 117.56,8.41 177.66,3.64 15.01,-1.18 30.09,-2.98 45.18,-5.25 z m 653.13,-617.64 c -0.59,34.34 -3.29,68.52 -6.04,103.63 -5.96,70.03 -13.13,140.42 -20.6,210.75 -14.41,134.87 -29.94,269.82 -46,404.61 l -3.09,0.97 c -0.3,15.97 0.26,32.38 -1.18,47.8 l -0.7,6.72 -0.64,4.66 c -0.46,3.04 -1,5.84 -1.57,8.45 -0.44,1.98 -1.47,5.21 -1.38,4.95 -0.1,0.07 -0.14,0.1 -0.33,0.25 -1.97,1.35 -4.32,2.82 -6.95,4.35 -10.76,6.14 -23.73,12.04 -36.77,17.04 -13.09,5.07 -26.58,9.45 -39.91,12.8 -25.33,6.25 -57.56,10 -87.71,14.27 -30.6,4.03 -61.3,7.77 -92.01,11.2 -61.27,6.59 -123.21,12.83 -183.17,14.75 -7.57,0.36 -14.84,0.35 -22.09,0.33 l -10.83,-0.03 -10.08,-0.53 c -7.66,-0.16 -10.93,-1.18 -16.67,-1.85 -6.72,-1.59 -13.41,-3.4 -20.08,-5.37 -13.31,-4.04 -26.45,-8.96 -39.23,-14.62 l -4.79,-2.14 -3.68,-1.76 93.52,-235.89 c 10.78,-1.34 21.46,-2.8 32.27,-4.08 l 169.19,-19.42 85.04,-9.92 43.16,-5.63 c 7.82,-1.31 14.13,-1.8 25.77,-4.92 10.4,-2.76 20.78,-7.25 30.38,-13.33 19.37,-12.04 34.6,-31.45 42.24,-51.74 7.87,-20.37 9.29,-40.72 8.07,-59.32 -2.96,-37.37 -16.02,-68.66 -31.2,-96.7 l -5.91,-10.38 -5.7,-9.79 -10.59,-17.73 c -6.97,-12 -13.9,-24.07 -20.73,-36.33 l -40.69,-74.3 -41.18,-75.3 c -14.22,-25.25 -28.23,-50.27 -45.78,-76.14 -4.61,-6.54 -8.96,-12.99 -14.96,-20.09 l -4.24,-5.18 -6.05,-6.08 c -2.09,-1.99 -4.04,-3.95 -6.33,-5.88 -2.73,-1.94 -5.52,-3.81 -8.37,-5.6 -2.7,-1.63 -6.06,-3.85 -8.31,-4.76 l -7.06,-3.01 -7.1,-2.87 c -2.23,-0.78 -4.25,-1.32 -6.39,-1.98 -4.18,-1.21 -8.57,-2.63 -12.59,-3.59 l -11.92,-2.64 c -11.79,-2.41 -23.2,-4.14 -34.47,-5.63 10.13,-42.42 20.39,-84.83 31.12,-126.73 3.46,-13.47 7.06,-27.16 10.68,-39.58 l 1.51,-5.33 2.04,-8.7 c 1.34,-5.8 1.52,-11.8 1.9,-17.7 -0.16,-11.68 -1.67,-23.39 -5.32,-33.69 -4.72,-14.74 -12.14,-27.26 -20.87,-38.22 4.22,-5.96 8.5,-11.71 12.78,-16.98 4.45,-5.4 9.32,-10.54 12.26,-12.98 l 7.59,-1.47 c 36.04,-7.56 70.15,-15.64 104.99,-23.83 34.66,-8.23 69.24,-16.64 103.89,-25.42 17.35,-4.42 34.65,-8.86 52.2,-13.68 8.92,-2.5 17.37,-4.76 27.03,-7.84 9.48,-2.89 18.63,-6.37 26.8,-9.34 8.29,-3.1 15.48,-5.59 20.69,-6.82 1.36,-0.37 2.59,-0.66 3.34,-0.68 0.89,-0.13 1.93,-0.39 2.1,-0.23 1.08,-0.07 0.64,-0.02 0.7,0 -0.14,0.22 -0.23,-0.86 2.9,2.7 1.31,1.43 2.91,3.7 4.51,5.9 1.58,2.84 3.32,5.01 4.91,8.31 3.56,6.34 5.91,12.56 8.48,18.7 2.22,7.36 4.86,14.14 6.72,22.21 2.12,7.72 4.06,15.63 5.71,23.87 1.86,8.05 3.37,16.37 4.86,24.71 11.66,66.93 17.8,136.69 20.65,205.96 1.37,34.68 1.94,69.4 1.26,103.86 z m 563.99,341.64 -15.42,98.81 -7.94,50.95 -0.5,3.19 -0.23,1.49 c -0.07,0.53 -0.08,0.14 -0.1,0.25 0,0 0.09,-0.01 -0.11,0.26 -0.1,0.49 -1.03,1.99 -2.08,3.6 -2.33,3.39 -6.38,7.71 -11.15,11.8 -9.59,8.33 -22.01,16.1 -35.2,22.6 -13.34,6.71 -27.03,11.38 -43.83,17.12 -32.44,11.05 -65.52,21.9 -98.53,32.63 l -198.61,63.89 -139.06,44.14 c 14.57,-123.08 28.72,-246.16 41.89,-369.51 7.5,-70.66 14.71,-141.32 20.77,-212.56 2.79,-35.56 5.67,-72.09 6.3,-108.65 0.72,-36.41 0.13,-72.61 -1.31,-108.76 -1.99,-47.64 -5.4,-95.07 -11.08,-142.68 4.12,-25.4 11.58,-50.38 22.87,-73.38 5.59,-11.9 12.28,-23.19 19.64,-33.63 7.3,-10.4 15.51,-20.17 23.8,-27.57 4,-3.43 8.34,-6.9 11.06,-8.23 1.92,-1.24 1.56,-0.66 2.5,-1.34 4.24,-1.37 8.87,-2.83 12.46,-4.15 15.3,-5.4 29.49,-10.83 43.86,-16.34 l 85.22,-33.23 84.58,-32.82 20.85,-7.77 5.13,-1.85 2.56,-0.93 1.92,-0.57 c 2.51,-0.63 4.99,-1.77 7.46,-2.09 9.91,-2.3 19.48,-2.49 28,-0.75 17.06,3.28 30.25,14.89 39.23,33.82 2.25,4.64 4.13,9.83 5.51,15.3 l 1.7,8.51 0.92,4.24 0.82,5.28 c 2.14,14.43 4.41,28.69 6.16,43.74 7.55,59.42 13.85,119.84 19.93,180.12 l 17.48,181.2 c 11.2,120.91 21.88,241.96 32.13,362.96 0.03,0.33 0.3,0.6 0.4,0.91" /></g></g></svg>
